<svg width="132" height="17" viewBox="0 0 132 17" fill="none" xmlns="http://www.w3.org/2000/svg">
<path d="M27.6687 0.287202H12.9451V2.14065H19.3478V16.7462H21.2676V2.14065H27.6687V0.287202ZM36.0968 0.0317258C31.2479 0.0317258 27.3164 3.8288 27.3164 8.51586C27.3164 13.2013 31.2479 17 36.0968 17C40.9473 17 44.8788 13.2013 44.8788 8.51586C44.8788 3.83047 40.9473 0.0317258 36.0968 0.0317258ZM36.0968 15.1449C32.3065 15.1449 29.2362 12.1777 29.2362 8.51586C29.2362 4.85404 32.3082 1.88685 36.0968 1.88685C39.8887 1.88685 42.9607 4.85404 42.9607 8.51586C42.9607 12.1777 39.8887 15.1449 36.0968 15.1449ZM43.8713 0.287202L51.4297 7.59081H52.7861V6.27836L46.5859 0.287202H43.8713ZM63.6225 0.287202H60.9078L54.7059 6.27836V7.59081H56.0624L63.6225 0.287202ZM54.7059 9.44259V10.7534L60.9078 16.7462H63.6225L56.0624 9.44259H54.7059ZM43.8713 16.7462H46.5859L52.7878 10.7534V9.44259H51.4314L43.8713 16.7462ZM6.62401 6.88783C5.00375 6.72085 2.28402 6.17651 2.28402 4.3865C2.28402 3.03399 4.14085 1.89186 6.34489 1.89186C7.75751 1.89186 9.0544 2.35105 9.81347 3.1158L11.2295 1.80837C10.1079 0.67626 8.28001 0 6.34318 0C2.96821 0 0.325073 1.92692 0.325073 4.3865C0.325073 5.79079 1.11648 8.22699 6.41807 8.76967C10.6117 9.19713 11.1512 10.6866 11.1512 11.9356C11.1512 13.6488 8.94888 15.0965 6.34489 15.0965C4.29403 15.0965 2.41167 14.1898 1.76663 12.8923L0 13.7122C0.97522 15.6725 3.52475 16.99 6.34318 16.99C10.0722 16.99 13.1102 14.7224 13.1102 11.9356C13.1102 9.02515 10.9282 7.32698 6.62401 6.88783Z" fill="black"/>
<path d="M71.7046 11.2263V10.6445H69.0329V8.74955H71.4846V8.18105H69.0329V6.4403H71.7046V5.85858H68.3774V11.2263H71.7046Z" fill="black"/>
<path d="M74.457 11.2263V6.90744H74.475L77.012 11.2219H77.699V5.85858H77.0524V10.173H77.0344L74.5154 5.85858H73.8059V11.2263H74.457Z" fill="black"/>
<path d="M83.3208 11.2263V10.6445H80.6491V8.74955H83.1008V8.18105H80.6491V6.4403H83.3208V5.85858H79.9935V11.2263H83.3208Z" fill="black"/>
<path d="M86.0735 11.2263V9.03159H87.3307L88.5296 11.2219H89.266L88.0312 8.98311C88.8619 8.83768 89.3918 8.30885 89.3918 7.44949C89.3918 6.40063 88.6868 5.85417 87.5418 5.85417H85.4179V11.2219H86.0735V11.2263ZM87.4879 6.4403C88.3186 6.4403 88.7362 6.77963 88.7362 7.4539C88.7362 8.15901 88.2378 8.4675 87.5014 8.4675H86.069V6.4403H87.4879Z" fill="black"/>
<path d="M93.3116 11.3408C93.9447 11.3408 94.4566 11.1425 94.8428 10.7503C95.2289 10.3581 95.4265 9.81603 95.4265 9.11973V8.5953H93.379V9.17702H94.7709C94.7934 10.151 94.2276 10.7415 93.3071 10.7415C92.8267 10.7415 92.4225 10.552 92.1127 10.1686C91.8029 9.77637 91.6547 9.21668 91.6547 8.48953C91.6547 7.79323 91.8119 7.25558 92.1217 6.89421C92.436 6.53284 92.8311 6.34775 93.3071 6.34775C94.066 6.34775 94.5419 6.77522 94.7215 7.62577L95.3771 7.51119C95.2918 6.98235 95.0538 6.55928 94.6811 6.23317C94.3174 5.90705 93.8594 5.74399 93.3116 5.74399C92.665 5.74399 92.1127 5.98197 91.6502 6.46674C91.2012 6.9515 90.9722 7.62577 90.9722 8.48953C90.9722 9.4767 91.2416 10.2523 91.6816 10.6886C92.1352 11.1249 92.683 11.3408 93.3116 11.3408Z" fill="black"/>
<path d="M98.9963 11.2263V8.96549L100.824 5.86298H100.096L98.6909 8.35292H98.673L97.2675 5.86298H96.5401L98.3676 8.96549V11.2263H98.9963Z" fill="black"/>
<path d="M104.583 9.37533C104.749 10.6842 105.49 11.3364 106.805 11.3364C107.407 11.3364 107.878 11.191 108.22 10.8913C108.561 10.5917 108.732 10.2171 108.732 9.78078C108.732 9.37533 108.606 9.05363 108.354 8.81565C108.103 8.57767 107.613 8.34851 106.877 8.11935C106.302 7.93426 105.921 7.78001 105.755 7.65221C105.588 7.52 105.503 7.36135 105.503 7.15422C105.503 6.6959 105.88 6.34775 106.576 6.34775C107.367 6.34775 107.712 6.70912 107.842 7.36135L108.507 7.22473C108.368 6.2508 107.618 5.74399 106.572 5.74399C106.042 5.74399 105.615 5.88061 105.301 6.15825C104.991 6.43589 104.834 6.762 104.834 7.15422C104.834 7.899 105.323 8.30444 106.549 8.67903C107.191 8.88616 107.6 9.06244 107.789 9.20787C107.977 9.3533 108.071 9.56043 108.071 9.81162C108.071 10.3316 107.645 10.7371 106.823 10.7371C106.311 10.7371 105.948 10.6225 105.719 10.3845C105.499 10.1466 105.346 9.76315 105.27 9.24313L104.583 9.37533Z" fill="black"/>
<path d="M112.62 10.7415C111.641 10.7415 110.967 9.96587 110.967 8.49394C110.967 7.78883 111.124 7.25118 111.434 6.88981C111.749 6.52843 112.144 6.34334 112.62 6.34334C113.087 6.34334 113.464 6.52843 113.774 6.90303C114.084 7.27762 114.241 7.81527 114.241 8.52038C114.241 9.99231 113.576 10.7415 112.62 10.7415ZM112.62 11.3408C113.23 11.3408 113.774 11.1337 114.214 10.7106C114.658 10.2832 114.932 9.51636 114.932 8.52479C114.932 7.65221 114.703 6.96913 114.245 6.47996C113.796 5.99078 113.248 5.74399 112.615 5.74399C111.969 5.74399 111.416 5.98197 110.954 6.46674C110.496 6.9515 110.267 7.62577 110.267 8.49835C110.267 9.48551 110.55 10.2611 110.994 10.6974C111.452 11.1249 111.996 11.3408 112.62 11.3408Z" fill="black"/>
<path d="M118.947 6.34775C119.728 6.34775 120.204 6.80607 120.361 7.72713L121.026 7.61255C120.945 7.05286 120.725 6.59895 120.361 6.2552C119.998 5.91146 119.522 5.74399 118.947 5.74399C118.3 5.74399 117.748 5.98197 117.285 6.46674C116.827 6.9515 116.598 7.62577 116.598 8.49835C116.598 9.48551 116.881 10.2611 117.326 10.6974C117.775 11.1249 118.323 11.3408 118.947 11.3408C120.182 11.3408 120.936 10.574 121.039 9.31804L120.352 9.23431C120.249 10.2391 119.778 10.7459 118.947 10.7459C117.968 10.7459 117.294 9.97027 117.294 8.49835C117.294 7.79323 117.452 7.25558 117.761 6.89421C118.076 6.53284 118.471 6.34775 118.947 6.34775Z" fill="black"/>
<path d="M123.558 11.2263V9.37093L124.169 8.67904H124.187L126.077 11.2219H126.867L124.622 8.20309L126.647 5.85858H125.826L123.581 8.48073H123.563V5.85858H122.907V11.2263H123.558Z" fill="black"/>
<path d="M127.851 9.37533C128.017 10.6842 128.758 11.3364 130.074 11.3364C130.675 11.3364 131.147 11.191 131.488 10.8913C131.829 10.5917 132 10.2171 132 9.78078C132 9.37533 131.874 9.05363 131.623 8.81565C131.371 8.57767 130.882 8.34851 130.146 8.11935C129.571 7.93426 129.189 7.78001 129.023 7.65221C128.857 7.52 128.772 7.36135 128.772 7.15422C128.772 6.6959 129.149 6.34775 129.845 6.34775C130.635 6.34775 130.981 6.70912 131.111 7.36135L131.775 7.22473C131.641 6.2508 130.891 5.74399 129.849 5.74399C129.319 5.74399 128.893 5.88061 128.578 6.15825C128.269 6.43589 128.111 6.762 128.111 7.15422C128.111 7.899 128.601 8.30444 129.827 8.67903C130.469 8.88616 130.877 9.06244 131.066 9.20787C131.255 9.3533 131.349 9.56043 131.349 9.81162C131.349 10.3316 130.922 10.7371 130.101 10.7371C129.589 10.7371 129.225 10.6225 128.996 10.3845C128.776 10.1466 128.623 9.76315 128.547 9.24313L127.851 9.37533Z" fill="black"/>
</svg>
